<svg width="105" height="51" viewBox="0 0 105 51" fill="none" xmlns="http://www.w3.org/2000/svg">
<path fill-rule="evenodd" clip-rule="evenodd" d="M34.4978 28.4567L31.3965 28.0182C29.7997 29.1641 28.0254 28.5487 27.408 26.9571H35.0371V31.9086H38.8482V29.4329C39.4656 31.9086 42.574 32.7928 44.3482 30.9325C44.3482 31.463 44.3482 32.0784 44.1708 32.6089C43.5534 34.0236 41.6869 34.0236 40.7146 33.0545L38.5004 35.9688C39.9198 37.1147 41.3391 37.6452 43.1985 37.4684C44.703 37.2915 45.6824 37.0228 46.8321 35.9688C47.7192 34.9997 48.1592 34.0236 48.1592 32.7008V20.4141H44.4263V27.3957C44.4263 28.7255 42.5669 28.7255 42.5669 27.3957V20.4141H38.8411V15.8164H35.0301V24.0358C33.8804 21.3832 31.4816 20.0605 28.6429 20.499C26.5138 20.9447 25.0945 22.0906 24.2996 24.0358C23.5899 21.7369 21.908 20.499 19.5092 20.4141C17.0253 20.4141 15.0737 21.5671 14.364 24.0358C13.1221 21.2064 10.553 19.8836 7.53686 20.591C5.76265 21.1215 4.61296 22.0906 3.81102 23.7741V15.8164H0V31.9086H3.81102V28.3718C4.87554 30.4939 6.73492 31.6398 9.13365 31.7318C11.7027 31.5549 13.2995 30.409 14.364 28.1101V31.9086H17.9976V25.0119C18.175 23.5123 20.4815 23.4204 20.5667 25.0119V31.9086H24.2925V28.287C25.0945 30.1402 26.4216 31.2932 28.4584 31.8237C32.8087 32.2623 34.4978 29.256 34.4978 28.4567ZM8.95623 28.4567C7.62912 28.4567 6.56458 27.3108 6.56458 25.981C6.56458 24.6583 7.62912 23.5972 8.95623 23.5972C10.2833 23.5972 11.3479 24.6583 11.3479 25.981C11.3479 27.3108 10.2833 28.4567 8.95623 28.4567ZM32.0139 25.5424H27.3158C28.0255 23.1587 31.212 23.1587 32.0139 25.5424Z" fill="white"/>
<path fill-rule="evenodd" clip-rule="evenodd" d="M104.913 27.3957L104.735 27.5725C104.026 28.1031 103.053 27.9262 102.698 27.2189C102.344 26.1578 102.521 25.0119 102.521 23.859H104.828V20.4141H102.521V18.1153H98.8875V24.0358C98.1778 22.4443 97.2055 21.4752 95.6087 20.7678C92.5074 19.7068 89.4913 20.9447 88.0719 24.0358C87.5396 22.4443 86.7377 21.4752 85.2331 20.7678C82.1318 19.7068 79.2008 20.9447 78.1363 24.0358C77.3414 22.0906 76.0995 21.0296 74.0556 20.499C71.2169 20.0534 68.8252 21.2064 67.6684 23.767V15.8093H63.8574V23.767C63.3252 22.7909 62.8852 22.1755 61.9981 21.4681C58.1871 18.6387 53.0419 21.4681 52.9496 26.1508V36.2305H56.6754C56.6754 35.1695 56.5832 31.2791 56.5832 31.2791L57.0232 31.4559C59.8619 32.1632 62.7006 30.7486 63.8503 28.5416V31.9015H67.6613V28.5416C68.7259 30.8405 70.7627 32.1632 73.424 31.9864C74.5737 32.0713 75.553 28.8953 75.553 29.7795L75.6382 31.9864H78.1221L81.848 31.9015V25.0049C81.848 23.5053 84.2396 23.4133 84.3318 24.9129C84.3318 27.2118 84.3318 29.6875 84.3318 31.8945H88.0577V28.2728C88.7674 29.8644 89.6545 30.7485 91.2513 31.4559C94.1752 32.5169 97.3688 31.9864 98.5255 28.3648L95.332 27.8343C94.6223 28.8953 92.0532 29.157 91.1661 26.9501H98.8804C98.8804 28.8033 98.8804 30.1332 100.477 31.2791C102.159 32.5169 105.09 31.3639 104.998 30.5717L104.913 27.3957ZM58.7974 28.4567C57.4703 28.4567 56.4058 27.3957 56.4058 26.0729C56.4058 24.7431 57.4703 23.6892 58.7974 23.6892C60.1245 23.6892 61.189 24.7502 61.189 26.0729C61.1961 27.3957 60.1316 28.4567 58.7974 28.4567ZM72.8137 28.4567C71.4865 28.4567 70.422 27.3957 70.422 26.0729C70.422 24.7431 71.4865 23.6892 72.8137 23.6892C74.1408 23.6892 75.2053 24.7502 75.2053 26.0729C75.2053 27.3957 74.1408 28.4567 72.8137 28.4567ZM91.1732 25.3656C91.7906 23.0667 95.0765 22.9818 95.7862 25.3656H91.1732Z" fill="white"/>
<path fill-rule="evenodd" clip-rule="evenodd" d="M51.438 2.91428C61.4587 2.91428 69.8827 9.28043 72.9911 18.2072L74.3253 17.7616L75.6524 17.323C72.1962 7.15838 62.7007 0 51.438 0C40.2604 0 30.6868 7.25034 27.2235 17.323L29.7926 18.2921C32.9862 9.36531 41.5024 2.91428 51.438 2.91428Z" fill="white"/>
<path fill-rule="evenodd" clip-rule="evenodd" d="M51.438 48.0857C41.4172 48.0857 32.9933 41.8964 29.7997 33.1465L28.5577 33.585L27.2306 34.0306C30.6868 44.0184 40.1824 51 51.4451 51C62.6226 51 72.1962 43.9265 75.6595 34.0306L73.0905 33.0616C69.8827 41.8115 61.3736 48.0857 51.438 48.0857Z" fill="white"/>
</svg>
